<svg width="253" height="253" xmlns="http://www.w3.org/2000/svg" preserveAspectRatio="xMidYMid">

 <g>
  <title>background</title>
  <rect fill="#fff" id="canvas_background" height="255" width="255" y="-1" x="-1"/>
 </g>
 <g>
  <title>Layer 1</title>
  <path stroke="null" id="svg_1" fill="#7289DA" d="m225.511,-3.785507l-196.021,0c-16.531,0 -29.99,13.458 -29.99,30.135l0,197.778c0,16.677 13.458,30.135 29.989,30.135l165.888,0l-7.754,-27.063l18.725,17.408l17.7,16.384l31.452,27.794l0,-262.436c0,-16.677 -13.458,-30.135 -29.989,-30.135zm-56.466,191.05s-5.266,-6.291 -9.655,-11.85c19.164,-5.413 26.478,-17.408 26.478,-17.408c-5.998,3.95 -11.703,6.73 -16.823,8.63c-7.314,3.073 -14.336,5.12 -21.211,6.291c-14.044,2.633 -26.917,1.902 -37.888,-0.146c-8.339,-1.61 -15.507,-3.95 -21.504,-6.29c-3.365,-1.317 -7.022,-2.926 -10.68,-4.974c-0.438,-0.293 -0.877,-0.439 -1.316,-0.732c-0.292,-0.146 -0.439,-0.292 -0.585,-0.438c-2.633,-1.463 -4.096,-2.487 -4.096,-2.487s7.022,11.703 25.6,17.261c-4.388,5.56 -9.801,12.142 -9.801,12.142c-32.33,-1.024 -44.617,-22.235 -44.617,-22.235c0,-47.104 21.065,-85.285 21.065,-85.285c21.065,-15.799 41.106,-15.36 41.106,-15.36l1.463,1.756c-26.331,7.605 -38.473,19.163 -38.473,19.163s3.218,-1.755 8.63,-4.242c15.653,-6.876 28.088,-8.777 33.208,-9.216c0.877,-0.147 1.609,-0.293 2.487,-0.293a123.776,123.776 0 0 1 29.55,-0.292c13.896,1.609 28.818,5.705 44.031,14.043c0,0 -11.556,-10.971 -36.425,-18.578l2.048,-2.34s20.041,-0.44 41.106,15.36c0,0 21.066,38.18 21.066,85.284c0,0 -12.435,21.211 -44.764,22.235l0,0.001zm-68.023,-68.316c-8.338,0 -14.92,7.314 -14.92,16.237c0,8.924 6.728,16.238 14.92,16.238c8.339,0 14.921,-7.314 14.921,-16.238c0.147,-8.923 -6.582,-16.237 -14.92,-16.237m53.394,0c-8.339,0 -14.922,7.314 -14.922,16.237c0,8.924 6.73,16.238 14.922,16.238c8.338,0 14.92,-7.314 14.92,-16.238c0,-8.923 -6.582,-16.237 -14.92,-16.237"/>
  <rect id="svg_2" height="79" width="368" y="-33" x="-45" stroke-width="1.5" fill="#7289da"/>
  <rect stroke="null" id="svg_3" height="66.000001" width="364.000017" y="217.999999" x="-52.000017" stroke-width="1.5" fill="#7289da"/>
 </g>
</svg>
