<?xml version="1.0" encoding="utf-8"?>
<!-- Svg Vector Icons : http://www.onlinewebfonts.com/icon -->
<!DOCTYPE svg PUBLIC "-//W3C//DTD SVG 1.1//EN" "http://www.w3.org/Graphics/SVG/1.1/DTD/svg11.dtd">
<svg version="1.1" xmlns="http://www.w3.org/2000/svg" xmlns:xlink="http://www.w3.org/1999/xlink" x="0px" y="0px" viewBox="0 0 1000 1000" enable-background="new 0 0 1000 1000" xml:space="preserve">
<metadata> Svg Vector Icons : http://www.onlinewebfonts.com/icon </metadata>
<g><g><g><path style="fill: #ddd" d="M126,446.2c0,11.8,3.1,22.3,9.4,31.3c6.3,9.1,14.3,15.7,24,19.9l52.2,28.2c-9.8,4.2-19.9,6.3-30.3,6.3c-23.7,0-43.9-8.4-60.6-25.1c-16.7-16.7-25.1-36.9-25.1-60.6c0-23.7,8.4-43.7,25.1-60.1c16.7-16.4,36.9-24.6,60.6-24.6c20.2,0,38.1,6.4,53.8,19.3c15.7,12.9,25.6,29.4,29.8,49.6l-52.2-29.3c-9.8-6.3-20.2-9.4-31.3-9.4c-15.3,0-28.4,5.2-39.2,15.7C131.4,418,126,430.9,126,446.2z M532.4,555.9c23.7,0,43.7,8.4,60.1,25.1c16.4,16.7,24.6,36.9,24.6,60.6s-8.2,43.7-24.6,60.1c-16.4,16.4-36.4,24.6-60.1,24.6c-20.9,0-39.2-6.4-54.9-19.3c-15.7-12.9-25.2-29.4-28.7-49.6l52.2,29.3c8.4,6.3,18.8,9.4,31.3,9.4c15.3,0,28.2-5.2,38.7-15.7c10.4-10.4,15.7-23.3,15.7-38.7c0-11.8-3.1-22.3-9.4-31.3s-14.3-15.7-24-19.8l-51.2-28.2C511.1,558,521.2,555.9,532.4,555.9z M780,325c18.1,0,33.8,6.6,47,19.9c13.2,13.2,19.8,28.9,19.8,47c0,18.1-6.6,33.6-19.8,46.5c-13.2,12.9-28.9,19.3-47,19.3c-18.1,0-33.6-6.4-46.5-19.3c-12.9-12.9-19.3-28.4-19.3-46.5c0-18.1,6.4-33.8,19.3-47C746.4,331.6,761.9,325,780,325z M780,493.2c28.6,0,52.8-9.8,72.6-29.3c19.8-19.5,29.8-43.5,29.8-72.1c0-28.6-9.9-52.8-29.8-72.6c-19.9-19.9-44.1-29.8-72.6-29.8c-13.9,0-27,2.6-39.2,7.8c-12.2,5.2-23,12.5-32.4,21.9c-9.4,9.4-16.7,20.4-21.9,32.9c-5.2,12.5-7.8,25.8-7.8,39.7s2.6,27.2,7.8,39.7c5.2,12.5,12.5,23.3,21.9,32.4c9.4,9.1,20.2,16.2,32.4,21.4C753,490.6,766.1,493.2,780,493.2z M780,541.3c20.9,0,40.4-3.8,58.5-11.5c18.1-7.7,34-18.3,47.5-31.9c13.6-13.6,24.4-29.4,32.4-47.5c8-18.1,12-37.6,12-58.5s-4-40.4-12-58.5c-8-18.1-18.8-34-32.4-47.5c-13.6-13.6-29.4-24.4-47.5-32.4c-18.1-8-37.6-12-58.5-12c-20.2,0-39.4,3.8-57.5,11.5c-18.1,7.7-33.8,18.1-47,31.3c-13.2,13.2-23.9,28.9-31.9,47c-8,18.1-12.4,37.3-13.1,57.5l-97.2,136.9h-1c-20.9,0-40.7,5.6-59.6,16.7L296.3,436.8c-2.1-25.1-11.7-47.2-28.7-66.3s-38.8-31.2-65.3-36c-16-2.1-31.3-1.4-46,2.1s-27.9,9.6-39.7,18.3c-11.8,8.7-21.8,19.3-29.8,31.9c-8,12.5-13.1,26.5-15.1,41.8c-2.8,15.3-2.3,30.3,1.6,44.9c3.8,14.6,9.9,27.9,18.3,39.7c8.4,11.8,18.8,21.8,31.3,29.8c12.5,8,26.5,13.4,41.8,16.2c11.1,2.1,21.9,2.3,32.4,0.5c10.4-1.7,20.5-4.4,30.3-7.8l190.1,106.6c3.5,28.6,16,52.4,37.6,71.6c21.6,19.2,47.4,28.7,77.3,28.7c16,0,31-3.1,44.9-9.4c13.9-6.3,26.1-14.6,36.6-25.1c10.4-10.4,18.8-22.6,25.1-36.6s9.4-28.9,9.4-44.9L779,541.3L780,541.3L780,541.3z M964.9,5.3c7,0,12.9,2.4,17.8,7.3c4.9,4.9,7.3,10.8,7.3,17.8v939.3c0,7-2.4,12.9-7.3,17.8c-4.9,4.9-10.8,7.3-17.8,7.3H35.1c-7,0-12.9-2.4-17.8-7.3c-4.9-4.9-7.3-10.8-7.3-17.8V30.4c0-7,2.4-12.9,7.3-17.8c4.9-4.9,10.8-7.3,17.8-7.3H964.9L964.9,5.3z"/></g></g><g></g><g></g><g></g><g></g><g></g><g></g><g></g><g></g><g></g><g></g><g></g><g></g><g></g><g></g><g></g></g>
</svg>
