<svg width="300" height="300" xmlns="http://www.w3.org/2000/svg">
 <metadata id="metadata15">image/svg+xml</metadata>

 <g>
  <title>background</title>
  <rect x="-1" y="-1" width="302" height="302" id="canvas_background" fill="none"/>
 </g>
 <g>
  <title>Layer 1</title>
  <g stroke="null" id="g2170">
   <path stroke="#000000" d="m142.276871,45.51469c-1.297752,-0.022944 0,2.556702 0,11.193794l0,11.193794l-26.961981,-0.376604c-21.19752,-0.296078 -27.388564,-0.022562 -28.957233,1.279318c-2.50846,2.08184 -2.902956,16.114947 -0.454974,16.18474l55.141965,-0.128669c0.061858,13.171659 0.233124,26.344366 0.065,39.515878c-0.621595,27.207538 -1.098736,54.417307 -1.351736,81.630846c-0.111787,14.738307 -0.672387,28.878063 -1.245777,31.421678c-2.161158,9.587087 -8.207712,10.8893 -26.843503,5.781158c-19.380694,-5.312321 -43.452854,-17.122178 -47.504538,-23.305828c-3.22103,-4.915928 -3.723765,-9.130943 -1.39585,-11.703269c1.160581,-1.282423 2.886235,-2.033882 3.834776,-1.669884c1.048794,0.402456 2.15167,-0.475133 2.814384,-2.239491c2.332795,-6.210698 -5.453448,-15.390067 -20.789457,-24.509094c-3.727474,-2.216424 -9.826976,-6.976303 -13.554449,-10.577535c-3.911025,-3.778549 -7.360288,-6.174163 -8.155897,-5.664503c-2.475634,1.585858 -7.540919,13.041179 -9.097291,20.573818c-3.128737,15.14276 0.840635,37.486407 8.216781,46.252476c3.893725,4.627427 6.06585,4.667783 6.973493,0.129556c1.599277,-7.996398 11.552186,-5.689825 22.394587,5.189925c8.5811,8.610649 24.921198,21.092978 32.03779,24.473902c2.71089,1.287882 6.592391,3.381798 8.625559,4.653132c2.033167,1.271346 8.13267,3.828762 13.554449,5.683147c11.358542,3.884915 24.659819,10.763169 29.926635,15.475423c2.000846,1.790173 5.022651,4.162189 6.715133,5.271141c2.960624,1.939876 3.156486,1.895331 5.168681,-1.175664c4.189003,-6.393227 11.414399,-11.987506 22.359802,-17.3121c6.151576,-2.992551 12.108966,-5.441002 13.238668,-5.441002c2.401245,0 22.665393,-8.965036 34.87274,-15.427995c9.565979,-5.064546 13.87516,-8.117279 24.562067,-17.400426c12.065136,-10.48035 18.169666,-11.664121 24.501602,-4.751266l3.953192,4.315897l2.538021,-2.775619c4.59205,-5.021911 6.282093,-10.071018 7.169971,-21.420688c0.67893,-8.678803 0.391046,-13.390613 -1.27832,-20.922599c-2.637844,-11.901694 -7.060784,-22.073285 -10.367774,-23.843127c-2.088001,-1.117478 -2.798735,-0.793847 -4.583129,2.086892c-3.102601,5.008862 -7.437967,8.948007 -15.787262,14.344415c-9.997294,6.461566 -16.030157,13.122814 -17.885108,19.748007c-1.791787,6.399659 -0.976081,8.722769 2.423905,6.903146c3.708978,-1.984975 6.125379,-1.443598 7.554289,1.692532c2.011788,4.415387 -1.010398,7.96717 -12.691586,14.915649c-19.95072,11.867549 -46.701326,21.587395 -59.412011,21.587395c-5.997918,0 -11.630395,-2.320103 -12.532481,-5.162323c-0.434987,-1.37054 -0.457327,-17.543327 -0.049646,-35.939524c0.407681,-18.396197 1.06724,-52.571585 1.46568,-75.945321c0.398452,-23.373736 0.911192,-42.799862 1.139436,-43.169184c0.228245,-0.369309 12.934925,-0.554833 28.237048,-0.412289c31.747774,0.295758 30.077693,0.892339 29.814835,-10.65031l-0.154348,-6.777225c-18.959791,-1.329334 -38.368814,1.160557 -57.248942,-1.388173c-0.356359,-0.356359 -0.729032,-4.748013 -0.828152,-9.759241l-0.180225,-11.295366l-19.988821,-0.35334z" id="path1881" fill="#fff" stroke-width="3"/>
   <path stroke="#000000" id="path1919" d="m152.589564,6.816589c-15.230864,0 -27.575566,11.886242 -27.570982,26.531294c-0.004584,14.645053 12.340119,26.531294 27.570982,26.531294c15.230851,0 27.575566,-11.886242 27.570982,-26.531294c0.004584,-14.645053 -12.340131,-26.531294 -27.570982,-26.531294zm-0.616111,12.899831c7.393619,0 13.402652,5.752077 13.400422,12.861324c0.00223,7.109259 -6.006802,12.861324 -13.400422,12.861324c-7.393619,0 -13.40264,-5.752065 -13.400422,-12.861324c-0.002218,-7.109247 6.006802,-12.861324 13.400422,-12.861324z" stroke-miterlimit="4" stroke-width="3" fill-rule="nonzero" fill="#fff"/>
  </g>
 </g>
</svg>