<svg width="300" height="300" xmlns="http://www.w3.org/2000/svg">
 <g>
  <title>background</title>
  <rect x="-1" y="-1" width="302" height="302" id="canvas_background" fill="none"/>
 </g>

 <g>
  <title>Layer 1</title>
  <path stroke="#000000" d="m283.568465,136.915008c0.008,-0.1 0.013,-0.201 0.015,-0.303c0,-0.023 0.003,-0.047 0.004,-0.07c0,-0.014 0.002,-0.028 0.002,-0.042c0,-74.715 -60.785,-135.5 -135.5,-135.5s-135.5,60.785 -135.5,135.5c0,0.14 0.011,0.277 0.021,0.415c-0.169,1.506 0.261,3.072 1.354,4.288l128.545,143.011l0,7.465c0,3.038 2.462,5.5 5.5,5.5c3.038,0 5.5,-2.462 5.5,-5.5l0,-7.177l128.706,-143.3c1.093,-1.216 1.522,-2.782 1.353,-4.287zm-258.274,0.437c7.115,-5.849 15.943,-9.032 25.295,-9.032c10.379,0 20.114,3.922 27.576,11.059l50.597,113.085l-103.468,-115.112zm117.295,119.082l-53.01,-118.478c7.234,-6.233 16.342,-9.636 26.01,-9.636c10.113,0 19.617,3.718 27,10.509l0,117.605zm24.825,-3.874l50.602,-113.182c7.462,-7.136 17.195,-11.058 27.574,-11.058c9.353,0 18.182,3.184 25.298,9.034l-103.474,115.206zm-13.825,3.97l0,-117.7c7.383,-6.792 16.887,-10.51 27,-10.51c9.669,0 18.777,3.404 26.012,9.637l-53.012,118.573zm92.001,-139.21c-0.001,0 0,0 0,0c-12.029,0 -23.387,4.122 -32.5,11.704c-9.114,-7.583 -20.47,-11.704 -32.5,-11.704c-0.001,0 0,0 0,0c-12.029,0 -23.386,4.122 -32.5,11.704c-9.114,-7.583 -20.47,-11.704 -32.5,-11.704c-0.001,0 0,0 0,0c-12.029,0 -23.386,4.122 -32.5,11.704c-9.114,-7.583 -20.47,-11.704 -32.5,-11.704c-9.488,0 -18.556,2.565 -26.436,7.368c5.969,-63.129 59.27,-112.688 123.935,-112.688c64.665,0 117.967,49.559 123.936,112.688c-7.88,-4.803 -16.948,-7.368 -26.435,-7.368z" id="svg_1" stroke-width="3" fill="#fff"/>
  <g id="svg_2"/>
  <g id="svg_3"/>
  <g id="svg_4"/>
  <g id="svg_5"/>
  <g id="svg_6"/>
  <g id="svg_7"/>
  <g id="svg_8"/>
  <g id="svg_9"/>
  <g id="svg_10"/>
  <g id="svg_11"/>
  <g id="svg_12"/>
  <g id="svg_13"/>
  <g id="svg_14"/>
  <g id="svg_15"/>
  <g id="svg_16"/>
  <path id="svg_19" d="m18,126.5l22,-66.5l59,-46l71,-7l54,22l36,38l16,47l0,20l-32,-13l-32,15l-33,-14l-30,12l-36,-12c0,0.5 -28,14.5 -28,14.5c0,0 -39,-14 -39,-14.5c0,0.5 198,0.5 -28,4.5z" fill-opacity="null" stroke-opacity="null" stroke-width="0" stroke="null" fill="#ffffff"/>
 </g>
</svg>